<svg width="40" height="40" viewBox="0 0 40 40" fill="none" xmlns="http://www.w3.org/2000/svg">
<path d="M30.5442 4C32.2901 4 33.9645 4.7935 35.1991 6.20594C35.549 6.60629 35.8554 7.0471 36.115 7.51873C37.2286 9.5424 35.7532 12.3124 32.5493 10.4266C31.9198 10.4266 31.8043 12.0425 31.8043 12.6724V16.8916H35.9009C36.5782 16.8916 37.1273 17.4407 37.1273 18.118V20.2418C37.1273 22.2738 35.48 23.921 33.4481 23.921H31.8043V27.1448C31.8043 27.8221 31.2552 28.3712 30.5779 28.3712H25.1877C24.5103 28.3712 23.9612 27.8221 23.9612 27.1448V23.921H16.9439V34.7736C16.9439 35.4509 16.3948 36 15.7175 36H10.3272C9.64992 36 9.10084 35.4509 9.10084 34.7736V23.921H4.09896C3.42164 23.921 2.87256 23.3719 2.87256 22.6946V20.5708C2.87256 18.5389 4.5198 16.8916 6.55177 16.8916H9.10084V11.5318C9.10084 9.53424 9.79438 7.61842 11.0289 6.20594C12.2635 4.79349 13.9379 4.00001 15.6838 4C17.4297 4 19.1041 4.7935 20.3386 6.20594C20.6886 6.60629 20.995 7.0471 21.2546 7.51873C22.3682 9.5424 20.9443 12.0894 17.9431 10.4266C17.3137 10.4266 16.9439 12.0425 16.9439 12.6724V16.8916H23.9612V11.5318C23.9612 9.53424 24.6548 7.61842 25.8893 6.20594C27.1239 4.79349 28.7983 4.00001 30.5442 4Z" fill="#FF5E2D"/>
<path d="M30.5779 31.3697C31.2552 31.3697 31.8043 31.9188 31.8043 32.5961V34.7736C31.8043 35.4509 31.2552 36 30.5779 36H25.1877C24.5103 36 23.9612 35.4509 23.9612 34.7736V32.5961C23.9613 31.9188 24.5103 31.3697 25.1877 31.3697H30.5779Z" fill="#FF5E2D"/>
</svg>
