<svg width="24" height="24" viewBox="0 0 24 24" fill="none" xmlns="http://www.w3.org/2000/svg">
<path d="M12 6.87805C12.6245 6.87805 13.1309 7.38442 13.1309 8.00896V10.8691H15.991C16.6156 10.8691 17.122 11.3755 17.122 12C17.122 12.6245 16.6156 13.1309 15.991 13.1309H13.1309V15.991C13.1309 16.6156 12.6245 17.122 12 17.122C11.3755 17.122 10.8691 16.6156 10.8691 15.991V13.1309H8.00896C7.38442 13.1309 6.87805 12.6245 6.87805 12C6.87805 11.3755 7.38442 10.8691 8.00896 10.8691H10.8691V8.00896C10.8691 7.38442 11.3755 6.87805 12 6.87805Z" fill="black"/>
<path fill-rule="evenodd" clip-rule="evenodd" d="M12 2C17.5228 2 22 6.47715 22 12C22 17.5228 17.5228 22 12 22C6.47715 22 2 17.5228 2 12C2 6.47715 6.47715 2 12 2ZM12 4.26181C7.72622 4.26181 4.26181 7.72622 4.26181 12C4.26181 16.2738 7.72622 19.7382 12 19.7382C16.2738 19.7382 19.7382 16.2738 19.7382 12C19.7382 7.72622 16.2738 4.26181 12 4.26181Z" fill="black"/>
</svg>
