<svg width="24" height="24" viewBox="0 0 24 24" fill="none" xmlns="http://www.w3.org/2000/svg">
<path d="M10.5632 19.6632C10.5632 20.0443 10.7146 20.4097 10.984 20.6792C11.2535 20.9486 11.619 21.1 12 21.1C12.3811 21.1 12.7466 20.9486 13.016 20.6792C13.2855 20.4097 13.4369 20.0443 13.4369 19.6632V13.4369H19.6632C20.0443 13.4369 20.4097 13.2855 20.6792 13.016C20.9486 12.7466 21.1 12.3811 21.1 12C21.1 11.619 20.9486 11.2535 20.6792 10.984C20.4097 10.7146 20.0443 10.5632 19.6632 10.5632H13.4369V4.33687C13.4369 3.95579 13.2855 3.59033 13.016 3.32087C12.7466 3.05141 12.3811 2.90002 12 2.90002C11.619 2.90002 11.2535 3.05141 10.984 3.32087C10.7146 3.59033 10.5632 3.95579 10.5632 4.33687V10.5632H4.33687C3.95579 10.5632 3.59033 10.7146 3.32087 10.984C3.05141 11.2535 2.90002 11.619 2.90002 12C2.90002 12.3811 3.05141 12.7466 3.32087 13.016C3.59033 13.2855 3.95579 13.4369 4.33687 13.4369H10.5632V19.6632Z" fill="black"/>
</svg>
