<svg width="24" height="24" viewBox="0 0 24 24" fill="none" xmlns="http://www.w3.org/2000/svg">
<path fill-rule="evenodd" clip-rule="evenodd" d="M12 2C17.5227 2.00023 22 6.47729 22 12C21.9999 17.5226 17.5226 21.9998 12 22C6.47721 22 2.0001 17.5228 2 12C2 6.47715 6.47715 2 12 2ZM12 6.72168C11.6831 6.72169 11.3768 6.83226 11.1338 7.03125L11.0342 7.12207C10.7782 7.37828 10.635 7.72568 10.6348 8.08691V10.6348H8.08691C7.77095 10.635 7.46562 10.7446 7.22266 10.9434L7.12207 11.0342C6.86616 11.2902 6.72169 11.6378 6.72168 12C6.72179 12.362 6.86627 12.7099 7.12207 12.9658C7.37822 13.2214 7.72597 13.365 8.08691 13.3652H10.6348V15.9131C10.6351 16.2742 10.7782 16.6218 11.0342 16.8779C11.2902 17.1335 11.6381 17.2783 12 17.2783C12.3619 17.2781 12.71 17.1337 12.9658 16.8779C13.2216 16.6218 13.3649 16.2741 13.3652 15.9131V13.3652H15.9131C16.2741 13.3648 16.6219 13.2217 16.8779 12.9658C17.1336 12.7099 17.2782 12.362 17.2783 12C17.2783 11.6381 17.1335 11.2902 16.8779 11.0342C16.654 10.8104 16.3594 10.6728 16.0479 10.6416L15.9131 10.6348H13.3652V8.08691C13.365 7.72597 13.2214 7.37822 12.9658 7.12207C12.71 6.86638 12.3619 6.72191 12 6.72168Z" fill="black"/>
</svg>
