<svg width="24" height="24" viewBox="0 0 24 24" fill="none" xmlns="http://www.w3.org/2000/svg">
<path d="M9.04507 5.46368C9.64591 3.70538 12.0754 3.65213 12.7877 5.30392L12.848 5.46468L13.6588 7.83587C13.8447 8.37967 14.1449 8.87729 14.5394 9.29518C14.9339 9.71306 15.4134 10.0415 15.9456 10.2583L16.1637 10.3397L18.5349 11.1495C20.2931 11.7503 20.3464 14.1798 18.6956 14.8922L18.5349 14.9524L16.1637 15.7633C15.6197 15.949 15.1219 16.2492 14.7038 16.6437C14.2857 17.0382 13.9571 17.5178 13.7402 18.0501L13.6588 18.2671L12.849 20.6393C12.2482 22.3976 9.81872 22.4508 9.10737 20.8L9.04507 20.6393L8.23525 18.2681C8.04956 17.7241 7.74933 17.2263 7.35484 16.8082C6.96035 16.3902 6.48077 16.0616 5.94846 15.8447L5.73144 15.7633L3.36025 14.9535C1.60095 14.3526 1.5477 11.9232 3.19949 11.2118L3.36025 11.1495L5.73144 10.3397C6.27524 10.1539 6.77286 9.85358 7.19075 9.4591C7.60863 9.06461 7.93706 8.58509 8.15387 8.05289L8.23525 7.83587L9.04507 5.46368ZM18.985 1.99933C19.1729 1.99933 19.3571 2.05206 19.5166 2.15152C19.6761 2.25098 19.8045 2.39319 19.8872 2.56198L19.9355 2.67954L20.2871 3.7104L21.319 4.06206C21.5074 4.12606 21.6725 4.24454 21.7935 4.40248C21.9144 4.56043 21.9858 4.75073 21.9985 4.94927C22.0112 5.14781 21.9646 5.34565 21.8648 5.51772C21.7649 5.68979 21.6162 5.82834 21.4375 5.91581L21.319 5.96404L20.2881 6.3157L19.9365 7.34756C19.8724 7.53588 19.7538 7.70093 19.5958 7.82179C19.4378 7.94266 19.2475 8.0139 19.0489 8.02649C18.8504 8.03908 18.6526 7.99245 18.4806 7.89252C18.3086 7.79258 18.1701 7.64383 18.0827 7.46512L18.0345 7.34756L17.6828 6.3167L16.651 5.96504C16.4626 5.90104 16.2975 5.78257 16.1765 5.62462C16.0555 5.46667 15.9842 5.27637 15.9715 5.07783C15.9588 4.87929 16.0053 4.68145 16.1052 4.50939C16.205 4.33732 16.3537 4.19877 16.5324 4.11129L16.651 4.06307L17.6818 3.71141L18.0335 2.67954C18.1012 2.48103 18.2294 2.3087 18.4001 2.18671C18.5707 2.06473 18.7752 1.9992 18.985 1.99933Z" fill="black"/>
</svg>
