<svg width="24" height="24" viewBox="0 0 24 24" fill="none" xmlns="http://www.w3.org/2000/svg">
<path d="M10.2403 4.91028C10.3856 4.9246 10.5287 4.96064 10.6641 5.01672C10.8444 5.09148 11.0085 5.20095 11.1465 5.33899C11.2846 5.47704 11.3941 5.64106 11.4688 5.82141C11.5435 6.0018 11.5821 6.1955 11.5821 6.39075C11.5821 6.58602 11.5435 6.77967 11.4688 6.96008C11.3941 7.14041 11.2845 7.30444 11.1465 7.4425L8.07721 10.5128H19.5128L19.6602 10.5197C20.0005 10.5535 20.3206 10.7044 20.5645 10.9484C20.8432 11.2271 21 11.605 21.0001 11.9991C21.0001 12.3935 20.8433 12.772 20.5645 13.0509C20.2856 13.3298 19.9072 13.4865 19.5128 13.4865H8.07721L11.1465 16.5568C11.4255 16.8357 11.5821 17.215 11.5821 17.6095C11.582 18.0039 11.4254 18.3824 11.1465 18.6613C10.8677 18.9401 10.4892 19.0967 10.0948 19.0968C9.70025 19.0968 9.32103 18.9402 9.04205 18.6613L3.43463 13.0509C3.15614 12.7721 3.00006 12.3932 3.00006 11.9991C3.00017 11.6052 3.15626 11.2271 3.43463 10.9484L9.04205 5.33899C9.18019 5.20085 9.34497 5.09148 9.52545 5.01672C9.70586 4.94204 9.89953 4.90344 10.0948 4.90344L10.2403 4.91028Z" fill="black"/>
</svg>
