<svg width="24" height="24" viewBox="0 0 24 24" fill="none" xmlns="http://www.w3.org/2000/svg">
<path d="M13.9053 4.90344C14.2999 4.90344 14.6791 5.06001 14.9581 5.33899L20.5655 10.9493C20.844 11.2282 21.0001 11.607 21.0001 12.0011C21 12.395 20.8439 12.7731 20.5655 13.0519L14.9581 18.6613C14.8199 18.7994 14.6552 18.9088 14.4747 18.9835C14.2943 19.0582 14.1006 19.0968 13.9053 19.0968L13.7598 19.09C13.6145 19.0756 13.4714 19.0396 13.336 18.9835C13.1557 18.9088 12.9916 18.7993 12.8536 18.6613C12.7155 18.5232 12.6061 18.3592 12.5313 18.1788C12.4566 17.9984 12.4181 17.8047 12.418 17.6095C12.418 17.4142 12.4566 17.2206 12.5313 17.0402C12.606 16.8598 12.7156 16.6958 12.8536 16.5577L15.9229 13.4874H4.48737L4.3399 13.4806C3.99958 13.4467 3.67957 13.2958 3.43561 13.0519C3.15694 12.7731 3.00017 12.3953 3.00006 12.0011C3.00006 11.6067 3.15679 11.2282 3.43561 10.9493C3.7145 10.6704 4.09295 10.5138 4.48737 10.5138H15.9229L12.8536 7.44348C12.5746 7.1645 12.418 6.78529 12.418 6.39075C12.4182 5.99637 12.5747 5.61786 12.8536 5.33899C13.1325 5.06012 13.511 4.90355 13.9053 4.90344Z" fill="black"/>
</svg>
