<svg width="24" height="24" viewBox="0 0 24 24" fill="none" xmlns="http://www.w3.org/2000/svg">
<path d="M18.9316 10.8562H18.9375C19.5165 10.9152 19.9685 11.4053 19.9688 11.9998V13.7049C19.9685 16.6932 17.5459 19.1158 14.5576 19.116H7.95215L8.97559 20.1394C9.42362 20.5879 9.42359 21.315 8.97559 21.7634C8.52712 22.2115 7.80003 22.2115 7.35156 21.7634L4.36719 18.7791C3.91953 18.3306 3.91945 17.6044 4.36719 17.156L7.35156 14.1716C7.80001 13.7237 8.52715 13.7237 8.97559 14.1716C9.42364 14.6201 9.42357 15.3472 8.97559 15.7957L7.95215 16.8191H14.5576C16.2772 16.819 17.6717 15.4244 17.6719 13.7049V11.9998C17.6722 11.3659 18.1856 10.8518 18.8193 10.8513H18.8242L18.9316 10.8562Z" fill="black"/>
<path d="M15.0234 2.2361C15.4719 1.78785 16.1999 1.78799 16.6484 2.2361L19.6328 5.22048L19.7109 5.30739C20.0786 5.75821 20.0525 6.42296 19.6328 6.84353L16.6484 9.8279C16.1999 10.276 15.4719 10.2762 15.0234 9.8279C14.5757 9.37943 14.5756 8.65222 15.0234 8.20388L16.0479 7.18044H9.44238C7.72288 7.18062 6.32842 8.57521 6.32812 10.2947V11.9998C6.32796 12.6339 5.81366 13.148 5.17969 13.1482C4.54565 13.148 4.03141 12.6339 4.03125 11.9998V10.2947C4.03155 7.30647 6.45417 4.88374 9.44238 4.88356H16.0479L15.0234 3.8611C14.5758 3.41262 14.5756 2.68443 15.0234 2.2361Z" fill="black"/>
</svg>
