<svg width="24" height="24" viewBox="0 0 24 24" fill="none" xmlns="http://www.w3.org/2000/svg">
<path d="M13.0515 3.43492C12.7726 3.15643 12.3946 3 12.0005 3C11.6064 3 11.2285 3.15643 10.9496 3.43492L5.33915 9.04242C5.06017 9.3214 4.90344 9.69978 4.90344 10.0943C4.90344 10.4889 5.06017 10.8672 5.33915 11.1462C5.61814 11.4252 5.99652 11.5819 6.39106 11.5819C6.7856 11.5819 7.16398 11.4252 7.44296 11.1462L10.5134 8.07677V19.5129C10.5134 19.9073 10.6701 20.2855 10.949 20.5644C11.2279 20.8433 11.6061 21 12.0005 21C12.395 21 12.7732 20.8433 13.0521 20.5644C13.331 20.2855 13.4877 19.9073 13.4877 19.5129V8.07677L16.5571 11.1462C16.6953 11.2844 16.8593 11.3939 17.0397 11.4687C17.2202 11.5435 17.4137 11.5819 17.609 11.5819C17.8044 11.5819 17.9978 11.5435 18.1783 11.4687C18.3588 11.3939 18.5228 11.2844 18.6609 11.1462C18.7991 11.0081 18.9086 10.8441 18.9834 10.6636C19.0582 10.4831 19.0966 10.2897 19.0966 10.0943C19.0966 9.89897 19.0582 9.70552 18.9834 9.52504C18.9086 9.34455 18.7991 9.18056 18.6609 9.04242L13.0515 3.43492Z" fill="black"/>
</svg>
