<svg width="24" height="24" viewBox="0 0 24 24" fill="none" xmlns="http://www.w3.org/2000/svg">
<path d="M11.9991 3C12.3935 3 12.772 3.15673 13.0509 3.43555C13.3298 3.71444 13.4865 4.09289 13.4865 4.4873V15.9229L16.5568 12.8535C16.8357 12.5745 17.215 12.418 17.6095 12.418L17.756 12.4258C18.0965 12.4596 18.4171 12.6094 18.6613 12.8535C18.9401 13.1324 19.0967 13.5109 19.0968 13.9053C19.0968 14.2998 18.9402 14.679 18.6613 14.958L13.0509 20.5654C12.7721 20.8439 12.3932 21 11.9991 21C11.6052 20.9999 11.2271 20.8438 10.9484 20.5654L5.33899 14.958C5.20085 14.8199 5.09148 14.6551 5.01672 14.4746C4.94204 14.2942 4.90344 14.1005 4.90344 13.9053C4.9035 13.7101 4.94202 13.5163 5.01672 13.3359C5.09148 13.1556 5.20095 12.9916 5.33899 12.8535C5.47704 12.7155 5.64106 12.606 5.82141 12.5312C6.0018 12.4565 6.1955 12.418 6.39075 12.418C6.58602 12.418 6.77967 12.4566 6.96008 12.5312C7.14041 12.6059 7.30444 12.7155 7.4425 12.8535L10.5128 15.9229V4.4873C10.5128 4.09289 10.6695 3.71444 10.9484 3.43555C11.2271 3.15688 11.605 3.00011 11.9991 3Z" fill="black"/>
</svg>
