<svg width="276" height="276" viewBox="-48 -48 276 276" fill="none" xmlns="http://www.w3.org/2000/svg">
<path d="M73.4918 13.5602C77.0711 -4.5201 102.928 -4.52001 106.508 13.5602C108.839 25.3382 122.403 30.9575 132.38 24.2777C147.695 14.024 165.979 32.3073 155.725 47.6229C149.045 57.5997 154.662 71.1602 166.439 73.4918C184.52 77.0708 184.52 102.929 166.439 106.508C154.662 108.839 149.045 122.403 155.725 132.38C165.977 147.695 147.695 165.977 132.38 155.725C122.403 149.045 108.839 154.662 106.508 166.439C102.929 184.52 77.0708 184.52 73.4918 166.439C71.1602 154.662 57.5997 149.045 47.6229 155.725C32.3073 165.979 14.024 147.695 24.2777 132.38C30.9575 122.403 25.3382 108.839 13.5602 106.508C-4.52001 102.928 -4.5201 77.071 13.5602 73.4918C25.3377 71.1605 30.9562 57.5997 24.2777 47.6229C14.0235 32.3072 32.3072 14.0235 47.6229 24.2777C57.5997 30.9562 71.1605 25.3377 73.4918 13.5602Z" fill="#1A73E9"/>
</svg>
