<svg width="24" height="24" viewBox="0 0 24 24" fill="none" xmlns="http://www.w3.org/2000/svg">
<path fill-rule="evenodd" clip-rule="evenodd" d="M19 3C19.55 3 20.0211 3.1959 20.4131 3.58789C20.8051 3.97989 21.0007 4.45067 21 5V19C21 19.55 20.8044 20.0211 20.4131 20.4131C20.0218 20.8051 19.5507 21.0007 19 21H5C4.45 21 3.97922 20.8044 3.58789 20.4131C3.19657 20.0218 3.00067 19.5507 3 19V5C3 4.45 3.19589 3.97922 3.58789 3.58789C3.97989 3.19656 4.45067 3.00067 5 3H19ZM16.9502 8.4502C16.5636 8.0636 15.9364 8.0636 15.5498 8.4502L10.5996 13.4004L8.4502 11.25C8.0636 10.8634 7.4364 10.8634 7.0498 11.25C6.6633 11.6366 6.66324 12.2638 7.0498 12.6504L9.89258 15.4932C10.283 15.8836 10.9161 15.8833 11.3066 15.4932L16.9502 9.84961C17.3364 9.46305 17.3365 8.83671 16.9502 8.4502Z" fill="black"/>
</svg>
