<svg width="24" height="24" viewBox="0 0 24 24" fill="none" xmlns="http://www.w3.org/2000/svg">
<path d="M18.4865 19.8094C19.0836 19.8094 19.5676 20.2997 19.5676 20.9047C19.5676 21.5096 19.0836 22 18.4865 22H5.51352C4.91645 22 4.43243 21.5096 4.43243 20.9047C4.43243 20.2997 4.91645 19.8094 5.51352 19.8094H18.4865Z" fill="black"/>
<path fill-rule="evenodd" clip-rule="evenodd" d="M14.1622 2C14.7592 2.00002 15.2506 2.35888 15.2506 3.03243V5.04799L15.2432 9.32166H16.8649L17.0264 9.33343C17.3971 9.39006 17.7171 9.63959 17.8636 9.99768C18.0309 10.407 17.9384 10.8782 17.6292 11.1914L12.7644 16.1204C12.3422 16.5481 11.6578 16.5481 11.2356 16.1204L6.37078 11.1914C6.06159 10.8781 5.96907 10.407 6.1364 9.99768C6.30377 9.58847 6.69793 9.32166 7.13514 9.32166H8.75676L8.73033 5.04799L8.75676 3.03243C8.75676 2.35887 9.24077 2 9.83784 2H14.1622Z" fill="black"/>
</svg>
