<svg width="24" height="24" viewBox="0 0 24 24" fill="none" xmlns="http://www.w3.org/2000/svg">
<path d="M12 1.90039C17.5782 1.90039 22.0996 6.42177 22.0996 12C22.0996 17.5782 17.5782 22.0996 12 22.0996C6.42177 22.0996 1.90039 17.5782 1.90039 12C1.90039 6.42177 6.42177 1.90039 12 1.90039ZM12 4.09961C9.90479 4.09961 7.8956 4.93253 6.41406 6.41406C4.93253 7.8956 4.09961 9.90479 4.09961 12C4.09961 14.0952 4.93253 16.1044 6.41406 17.5859C7.8956 19.0675 9.90479 19.9004 12 19.9004C14.0952 19.9004 16.1044 19.0675 17.5859 17.5859C19.0675 16.1044 19.9004 14.0952 19.9004 12C19.9004 9.90479 19.0675 7.8956 17.5859 6.41406C16.1044 4.93253 14.0952 4.09961 12 4.09961ZM15.5137 13.4609C15.6593 13.4614 15.8033 13.4913 15.9375 13.5479C16.0718 13.6045 16.1939 13.6869 16.2959 13.791C16.3978 13.895 16.4783 14.0181 16.5322 14.1533C16.5862 14.2887 16.6128 14.4343 16.6104 14.5801C16.6078 14.7257 16.5761 14.8695 16.5176 15.0029C16.4593 15.1359 16.3745 15.2552 16.2695 15.3555C15.2017 16.405 13.7874 17.0216 12.2988 17.0928L12 17.0996C10.4029 17.1018 8.86859 16.476 7.72949 15.3564L7.72852 15.3555C7.52517 15.1502 7.41095 14.8729 7.41016 14.584C7.40937 14.295 7.52229 14.0169 7.72461 13.8105C7.92687 13.6043 8.20239 13.4864 8.49121 13.4814C8.77999 13.4765 9.05935 13.5851 9.26855 13.7842L9.27051 13.7861C9.99829 14.502 10.9791 14.9026 12 14.9004L12.1982 14.8955C13.1817 14.8464 14.0677 14.4328 14.7285 13.7861C14.8311 13.6826 14.9542 13.6008 15.0889 13.5449C15.2234 13.4891 15.3681 13.4605 15.5137 13.4609ZM8.5 7.90039C8.92435 7.90039 9.33178 8.06811 9.63184 8.36816C9.93189 8.66822 10.0996 9.07565 10.0996 9.5C10.0996 9.92435 9.93189 10.3318 9.63184 10.6318C9.33178 10.9319 8.92435 11.0996 8.5 11.0996C8.07565 11.0996 7.66822 10.9319 7.36816 10.6318C7.06811 10.3318 6.90039 9.92435 6.90039 9.5C6.90039 9.07565 7.06811 8.66822 7.36816 8.36816C7.66822 8.06811 8.07565 7.90039 8.5 7.90039ZM15.5 7.90039C15.9243 7.90039 16.3318 8.06811 16.6318 8.36816C16.9319 8.66822 17.0996 9.07565 17.0996 9.5C17.0996 9.92435 16.9319 10.3318 16.6318 10.6318C16.3318 10.9319 15.9243 11.0996 15.5 11.0996C15.0757 11.0996 14.6682 10.9319 14.3682 10.6318C14.0681 10.3318 13.9004 9.92435 13.9004 9.5C13.9004 9.07565 14.0681 8.66822 14.3682 8.36816C14.6682 8.06811 15.0757 7.90039 15.5 7.90039Z" fill="black" stroke="black" stroke-width="0.2"/>
</svg>
