<svg width="200" height="200" viewBox="0 0 200 200" fill="none" xmlns="http://www.w3.org/2000/svg">
<path d="M81.6576 15.0668C85.6345 -5.02233 114.365 -5.02223 118.342 15.0668C120.932 28.1535 136.003 34.3972 147.089 26.9752C164.106 15.5822 184.421 35.897 173.028 52.9143C165.606 63.9997 171.846 79.0669 184.933 81.6576C205.022 85.6343 205.022 114.365 184.933 118.342C171.846 120.933 165.606 136.003 173.028 147.089C184.419 164.105 164.105 184.419 147.089 173.028C136.003 165.606 120.933 171.846 118.342 184.933C114.365 205.022 85.6343 205.022 81.6576 184.933C79.0669 171.846 63.9997 165.606 52.9143 173.028C35.897 184.421 15.5822 164.106 26.9752 147.089C34.3972 136.003 28.1535 120.932 15.0668 118.342C-5.02223 114.365 -5.02233 85.6345 15.0668 81.6576C28.153 79.0672 34.3958 63.9997 26.9752 52.9143C15.5816 35.8969 35.8969 15.5816 52.9143 26.9752C63.9997 34.3958 79.0672 28.153 81.6576 15.0668Z" fill="url(#paint0_linear_61_245)"/>
<path fill-rule="evenodd" clip-rule="evenodd" d="M59.5722 74.2732C59.5722 72.342 59.9527 70.4297 60.6919 68.6457C61.4312 66.8616 62.5147 65.2406 63.8806 63.8754C65.2465 62.5102 66.868 61.4275 68.6524 60.6891C70.4369 59.9507 72.3494 59.5712 74.2805 59.5722H125.719C127.651 59.5712 129.563 59.9507 131.348 60.6891C133.132 61.4275 134.754 62.5102 136.119 63.8754C137.485 65.2406 138.569 66.8616 139.308 68.6457C140.047 70.4297 140.428 72.342 140.428 74.2732V125.727C140.428 129.626 138.879 133.365 136.122 136.122C133.365 138.879 129.626 140.428 125.727 140.428H74.2732C70.3742 140.428 66.635 138.879 63.878 136.122C61.121 133.365 59.5722 129.626 59.5722 125.727V74.2732ZM129.402 100C129.402 107.798 126.304 115.276 120.79 120.79C115.276 126.304 107.798 129.402 100 129.402C92.2021 129.402 84.7236 126.304 79.2096 120.79C73.6956 115.276 70.5979 107.798 70.5979 100C70.5979 92.2021 73.6956 84.7236 79.2096 79.2096C84.7236 73.6956 92.2021 70.5979 100 70.5979C107.798 70.5979 115.276 73.6956 120.79 79.2096C126.304 84.7236 129.402 92.2021 129.402 100ZM100 107.351C101.949 107.351 103.819 106.576 105.198 105.198C106.576 103.819 107.351 101.949 107.351 100C107.351 98.0505 106.576 96.1809 105.198 94.8024C103.819 93.4239 101.949 92.6495 100 92.6495C98.0505 92.6495 96.1809 93.4239 94.8024 94.8024C93.4239 96.1809 92.6495 98.0505 92.6495 100C92.6495 101.949 93.4239 103.819 94.8024 105.198C96.1809 106.576 98.0505 107.351 100 107.351Z" fill="#F2F8F4"/>
<defs>
<linearGradient id="paint0_linear_61_245" x1="49.6212" y1="29.3625" x2="139.018" y2="201.791" gradientUnits="userSpaceOnUse">
<stop stop-color="#F2BD2E"/>
<stop offset="0.490385" stop-color="#FF5E2D"/>
<stop offset="1" stop-color="#EF8867"/>
</linearGradient>
</defs>
</svg>
