<svg width="200" height="200" viewBox="0 0 200 200" fill="none" xmlns="http://www.w3.org/2000/svg">
<path d="M81.6576 15.0668C85.6345 -5.02233 114.365 -5.02223 118.342 15.0668C120.932 28.1535 136.003 34.3972 147.089 26.9752C164.106 15.5822 184.421 35.897 173.028 52.9143C165.606 63.9997 171.846 79.0669 184.933 81.6576C205.022 85.6343 205.022 114.365 184.933 118.342C171.846 120.933 165.606 136.003 173.028 147.089C184.419 164.105 164.105 184.419 147.089 173.028C136.003 165.606 120.933 171.846 118.342 184.933C114.365 205.022 85.6343 205.022 81.6576 184.933C79.0669 171.846 63.9997 165.606 52.9143 173.028C35.897 184.421 15.5822 164.106 26.9752 147.089C34.3972 136.003 28.1535 120.932 15.0668 118.342C-5.02223 114.365 -5.02233 85.6345 15.0668 81.6576C28.153 79.0672 34.3958 63.9997 26.9752 52.9143C15.5816 35.8969 35.8969 15.5816 52.9143 26.9752C63.9997 34.3958 79.0672 28.153 81.6576 15.0668Z" fill="url(#paint0_linear_61_247)"/>
<path d="M88.7027 75.0127C90.9998 68.2903 100.288 68.0867 103.012 74.4019L103.242 75.0165L106.342 84.0821C107.053 86.1612 108.201 88.0637 109.709 89.6614C111.217 91.2591 113.05 92.5147 115.085 93.3436L115.919 93.6548L124.984 96.7509C131.707 99.0481 131.91 108.336 125.599 111.06L124.984 111.29L115.919 114.39C113.839 115.1 111.936 116.248 110.337 117.756C108.739 119.265 107.483 121.098 106.653 123.133L106.342 123.963L103.246 133.033C100.949 139.755 91.6605 139.959 88.9409 133.647L88.7027 133.033L85.6066 123.967C84.8966 121.887 83.7488 119.984 82.2405 118.386C80.7323 116.787 78.8987 115.531 76.8636 114.702L76.0339 114.39L66.9683 111.294C60.2421 108.997 60.0385 99.7088 66.3537 96.9891L66.9683 96.7509L76.0339 93.6548C78.113 92.9444 80.0155 91.7963 81.6132 90.2881C83.2108 88.7799 84.4665 86.9466 85.2954 84.9119L85.6066 84.0821L88.7027 75.0127ZM126.705 61.7677C127.424 61.7677 128.128 61.9693 128.738 62.3495C129.348 62.7298 129.839 63.2735 130.155 63.9188L130.339 64.3683L131.684 68.3095L135.629 69.654C136.349 69.8987 136.98 70.3516 137.443 70.9555C137.905 71.5594 138.178 72.2869 138.227 73.046C138.275 73.8051 138.097 74.5614 137.715 75.2193C137.334 75.8772 136.765 76.4069 136.082 76.7413L135.629 76.9257L131.688 78.2702L130.343 82.2152C130.098 82.9352 129.645 83.5662 129.041 84.0283C128.436 84.4904 127.709 84.7628 126.95 84.8109C126.191 84.8591 125.434 84.6808 124.777 84.2987C124.119 83.9166 123.59 83.3479 123.256 82.6647L123.071 82.2152L121.727 78.274L117.782 76.9295C117.062 76.6848 116.43 76.2319 115.968 75.628C115.505 75.0242 115.232 74.2966 115.184 73.5375C115.135 72.7785 115.313 72.0221 115.695 71.3642C116.077 70.7064 116.645 70.1767 117.328 69.8422L117.782 69.6578L121.723 68.3134L123.067 64.3683C123.327 63.6093 123.817 62.9505 124.469 62.4841C125.121 62.0177 125.903 61.7672 126.705 61.7677Z" fill="white"/>
<defs>
<linearGradient id="paint0_linear_61_247" x1="49.6212" y1="29.3625" x2="139.018" y2="201.791" gradientUnits="userSpaceOnUse">
<stop stop-color="#F2BD2E"/>
<stop offset="0.490385" stop-color="#FF5E2D"/>
<stop offset="1" stop-color="#EF8867"/>
</linearGradient>
</defs>
</svg>
