<svg width="200" height="200" viewBox="0 0 200 200" fill="none" xmlns="http://www.w3.org/2000/svg">
<path d="M81.6576 15.0668C85.6345 -5.02233 114.365 -5.02223 118.342 15.0668C120.932 28.1535 136.003 34.3972 147.089 26.9752C164.106 15.5822 184.421 35.897 173.028 52.9143C165.606 63.9997 171.846 79.0669 184.933 81.6576C205.022 85.6343 205.022 114.365 184.933 118.342C171.846 120.933 165.606 136.003 173.028 147.089C184.419 164.105 164.105 184.419 147.089 173.028C136.003 165.606 120.933 171.846 118.342 184.933C114.365 205.022 85.6343 205.022 81.6576 184.933C79.0669 171.846 63.9997 165.606 52.9143 173.028C35.897 184.421 15.5822 164.106 26.9752 147.089C34.3972 136.003 28.1535 120.932 15.0668 118.342C-5.02223 114.365 -5.02233 85.6345 15.0668 81.6576C28.153 79.0672 34.3958 63.9997 26.9752 52.9143C15.5816 35.8969 35.8969 15.5816 52.9143 26.9752C63.9997 34.3958 79.0672 28.153 81.6576 15.0668Z" fill="url(#paint0_linear_61_246)"/>
<path d="M129.098 63.0327C130.296 62.7335 131.565 63.0033 132.538 63.7629C133.511 64.5227 134.08 65.6883 134.08 66.9227V118.376C134.08 126.68 127.348 133.411 119.045 133.411C110.741 133.411 104.009 126.68 104.009 118.376C104.01 110.073 110.741 103.341 119.045 103.341C121.579 103.341 123.966 103.969 126.061 105.076V86.7581L89.9766 95.7792V122.052C89.9766 130.355 83.2451 137.087 74.9414 137.087C66.6378 137.087 59.9063 130.355 59.9063 122.052C59.9064 113.748 66.6378 107.016 74.9414 107.016C77.4756 107.016 79.8632 107.644 81.9578 108.751V77.9484C81.9579 76.1088 83.2104 74.5047 84.9952 74.0585L129.098 63.0327Z" fill="#F2F8F4"/>
<defs>
<linearGradient id="paint0_linear_61_246" x1="49.6212" y1="29.3625" x2="139.018" y2="201.791" gradientUnits="userSpaceOnUse">
<stop stop-color="#F2BD2E"/>
<stop offset="0.490385" stop-color="#FF5E2D"/>
<stop offset="1" stop-color="#EF8867"/>
</linearGradient>
</defs>
</svg>
