<svg width="24" height="24" viewBox="0 0 24 24" fill="none" xmlns="http://www.w3.org/2000/svg">
<path fill-rule="evenodd" clip-rule="evenodd" d="M11.6424 16.6357C12.3922 16.6578 13.0719 16.9363 13.5598 17.4341C14.0497 17.9342 14.3164 18.625 14.2948 19.4095C14.2712 20.1952 13.9635 20.8662 13.4424 21.3308C12.9249 21.7919 12.2323 22.0205 11.488 21.9986C10.0197 21.9557 8.81735 20.8731 8.86335 19.2512C8.91054 17.6365 10.1654 16.5911 11.6424 16.6357ZM9.47432 19.9215L9.48224 19.9479C9.46329 19.8781 9.44697 19.8065 9.43474 19.7328L9.47432 19.9215Z" fill="black"/>
<path fill-rule="evenodd" clip-rule="evenodd" d="M11.6833 2C13.4635 2.00009 15.001 2.39965 16.265 3.22723L16.5144 3.39878L16.7612 3.5888C17.9553 4.56559 18.5366 5.95409 18.5373 7.67956C18.5373 8.85447 18.1217 9.84071 17.5476 10.6262L17.5463 10.6249C17.3543 10.8952 17.0681 11.1758 16.7466 11.4549C16.4164 11.7417 16.0175 12.0559 15.5867 12.3919L15.5748 12.4024L15.5616 12.4117L14.6195 13.0583C14.1767 13.4052 13.8825 13.7353 13.7841 14.0466C13.7191 14.2511 13.6772 14.4319 13.6601 14.8278C13.6551 14.9509 13.6183 15.1432 13.4806 15.3174C13.3418 15.493 13.1384 15.6027 12.8987 15.6275L12.7931 15.6328H10.0906C9.83181 15.6327 9.57251 15.5516 9.39515 15.3372C9.23293 15.1408 9.2158 14.9224 9.21832 14.8147V14.8081C9.23956 14.2124 9.26236 13.6599 9.34632 13.1836C9.43173 12.6994 9.58854 12.243 9.91375 11.8614C10.371 11.3247 11.0931 10.7481 11.6701 10.3227C11.9643 10.1059 12.2324 9.921 12.4263 9.78961C12.5232 9.72395 12.6022 9.67137 12.6572 9.63521C12.6844 9.61733 12.7057 9.60263 12.7205 9.59299C12.7239 9.59081 12.7271 9.58815 12.7298 9.58639C12.9453 9.42658 13.135 9.23341 13.2893 9.01368L13.2946 9.00576C13.598 8.58982 13.7761 8.22271 13.7762 7.87091C13.7762 7.37745 13.634 6.93186 13.3421 6.52096C13.1347 6.22901 12.7009 5.99971 11.8338 5.99971C11.1331 5.99986 10.6971 6.19535 10.4244 6.52227L10.3176 6.67007C10.2657 6.75256 10.2172 6.83668 10.1724 6.92211C9.71402 7.7957 8.83589 8.84465 7.57806 8.84477C6.34956 8.84458 5.1768 7.77847 5.52476 6.41539C5.90608 4.92225 6.69559 3.76797 7.904 2.99894L8.3078 2.76273C9.27434 2.24812 10.4066 2.00006 11.6833 2ZM9.79499 14.0374C9.77921 14.2816 9.76945 14.5448 9.75936 14.8278L9.76728 14.9057C9.768 14.9085 9.77038 14.9108 9.77123 14.9136C9.76171 14.8818 9.75881 14.8515 9.75936 14.8278C9.77013 14.5258 9.78129 14.2465 9.79895 13.9886L9.79499 14.0374Z" fill="black"/>
</svg>
