<svg width="24" height="24" viewBox="0 0 24 24" fill="none" xmlns="http://www.w3.org/2000/svg">
<path d="M12.8284 2.57567C12.3599 2.14144 11.6362 2.14144 11.1715 2.57567L2.63945 10.4983C2.27379 10.8411 2.1519 11.3706 2.33473 11.8353C2.51756 12.3 2.96321 12.6085 3.46599 12.6085H4.07543V19.3123C4.07543 20.6568 5.1686 21.75 6.51316 21.75H17.483C18.8275 21.75 19.9207 20.6568 19.9207 19.3123V12.6085H20.5302C21.0329 12.6085 21.4824 12.3 21.6652 11.8353C21.8481 11.3706 21.7262 10.8373 21.3605 10.4983L12.8284 2.57567ZM11.3886 14.4368H12.6075C13.6169 14.4368 14.4358 15.2557 14.4358 16.2651V19.9217H9.56034V16.2651C9.56034 15.2557 10.3793 14.4368 11.3886 14.4368Z" fill="black"/>
</svg>
