<svg width="133" height="32" viewBox="0 0 133 32" fill="none" xmlns="http://www.w3.org/2000/svg">
<path d="M21.6183 3.50014C22.9822 3.50014 24.2904 4.12006 25.2548 5.22352C25.5282 5.53629 25.7676 5.88066 25.9704 6.24912C26.8404 7.8301 25.6878 9.99416 23.1847 8.52084C22.693 8.52085 22.6027 9.78326 22.6027 10.2754V13.5716H25.8031C26.3323 13.5716 26.7613 14.0006 26.7613 14.5297V16.1889C26.7613 17.7764 25.4744 19.0633 23.8869 19.0633H22.6027V21.5818C22.6027 22.111 22.1737 22.54 21.6446 22.54H17.4335C16.9044 22.54 16.4754 22.111 16.4754 21.5818V19.0633H10.9931V27.5418C10.9931 28.0709 10.5642 28.4999 10.035 28.4999H5.82392C5.29477 28.4999 4.8658 28.0709 4.8658 27.5418V19.0633H0.95812C0.428965 19.0633 0 18.6343 0 18.1052V16.446C0 14.8585 1.28689 13.5716 2.87436 13.5716H4.8658V9.3843C4.8658 7.82373 5.40762 6.327 6.37211 5.22352C7.33658 4.12004 8.64472 3.50015 10.0087 3.50014C11.3726 3.50014 12.6808 4.12006 13.6453 5.22352C13.9186 5.53629 14.158 5.88066 14.3608 6.24912C15.2308 7.8301 14.1184 9.81989 11.7738 8.52084C11.282 8.52085 10.9931 9.78326 10.9931 10.2754V13.5716H16.4754V9.3843C16.4754 7.82373 17.0172 6.327 17.9817 5.22352C18.9462 4.12005 20.2543 3.50015 21.6183 3.50014Z" fill="#FF5E2D"/>
<path d="M21.6446 24.8825C22.1737 24.8825 22.6027 25.3115 22.6027 25.8406V27.5418C22.6027 28.0709 22.1737 28.4999 21.6446 28.4999H17.4335C16.9044 28.4999 16.4754 28.0709 16.4754 27.5418V25.8406C16.4754 25.3115 16.9044 24.8825 17.4335 24.8825H21.6446Z" fill="#FF5E2D"/>
<path d="M124.821 10.8996C126.715 10.8996 128.221 11.2875 129.34 12.0633C130.458 12.8393 131.235 13.9124 131.669 15.2817L126.807 16.3785C126.739 16.1046 126.601 15.8985 126.396 15.7616C126.213 15.602 125.985 15.4873 125.712 15.4188C125.438 15.3503 125.163 15.3168 124.889 15.3168C124.365 15.3168 123.977 15.4193 123.726 15.6245C123.475 15.8069 123.348 16.024 123.348 16.2748C123.348 16.4803 123.416 16.6528 123.553 16.7898C123.69 16.9039 123.874 16.9938 124.102 17.0623C124.353 17.1308 124.638 17.1995 124.958 17.268C125.3 17.3136 125.654 17.3823 126.02 17.4736C126.704 17.6334 127.4 17.8272 128.108 18.0554C128.838 18.2608 129.511 18.5586 130.127 18.9466C130.766 19.3345 131.281 19.8475 131.669 20.4864C132.057 21.1254 132.263 21.9591 132.286 22.9859C132.286 24.0131 132 24.9501 131.43 25.7947C130.859 26.6165 130.014 27.2788 128.895 27.781C127.8 28.2601 126.43 28.4998 124.787 28.4999C122.779 28.4999 121.111 28.1001 119.787 27.3011C118.486 26.4794 117.675 25.2691 117.356 23.6714L122.527 22.5763L122.604 22.8221C122.689 23.0574 122.801 23.2611 122.938 23.4323C123.121 23.6375 123.361 23.7964 123.657 23.9105C123.954 24.0246 124.296 24.0827 124.684 24.0827C125.277 24.0827 125.733 23.9802 126.053 23.7751C126.395 23.5696 126.568 23.3055 126.568 22.9859C126.568 22.6667 126.43 22.4266 126.157 22.267C125.906 22.0844 125.574 21.9364 125.163 21.8223C124.753 21.7082 124.319 21.6059 123.863 21.5146C123.292 21.4005 122.652 21.2524 121.945 21.0699C121.238 20.8873 120.552 20.6247 119.89 20.2824C119.251 19.9172 118.714 19.4258 118.28 18.8095C117.869 18.1932 117.665 17.4055 117.665 16.447C117.665 15.397 117.938 14.46 118.486 13.6382C119.034 12.7938 119.833 12.133 120.883 11.6537C121.956 11.1515 123.269 10.8996 124.821 10.8996Z" fill="#333532"/>
<path d="M44.3347 11.1387C45.1105 10.9791 45.9778 10.979 46.9362 11.1387V16.4805C46.3428 16.298 45.6924 16.2415 44.985 16.3099C44.3002 16.3784 43.638 16.5951 42.9988 16.9603C42.3825 17.3255 41.8805 17.8734 41.4924 18.6038C41.1043 19.3343 40.9106 20.2819 40.9106 21.4461V28.2591H35.2946V11.1387H40.3973L40.7735 13.4677C41.207 12.8516 41.7201 12.3493 42.3133 11.9613C42.9068 11.5504 43.5814 11.2757 44.3347 11.1387Z" fill="#333532"/>
<path d="M54.8209 28.2591H49.205V11.1387H54.8209V28.2591Z" fill="#333532"/>
<path d="M62.9949 3.88092C64.2274 3.49291 65.6881 3.40138 67.377 3.60672V8.63919C66.5328 8.50244 65.8823 8.61685 65.4259 8.98194C64.9922 9.3243 64.7756 9.89517 64.7755 10.694V11.1387H67.4807V16.1377H64.7755V28.2591H59.1595V16.1377H57.2419V11.1387H59.1595V10.1456C59.1597 8.38828 59.4908 7.00682 60.1527 6.00258C60.8374 4.97559 61.7853 4.26895 62.9949 3.88092Z" fill="#333532"/>
<path d="M74.0797 3.88092C75.3124 3.49285 76.7743 3.40128 78.4635 3.60672V8.63919C77.6189 8.50223 76.9673 8.6167 76.5107 8.98194C76.0773 9.32434 75.8604 9.89539 75.8603 10.694V11.1053H85.2766V28.2591H79.6623V16.1043H75.8603V28.2591H70.246V16.1043H68.3283V11.1053H70.246V10.1456C70.2461 8.38828 70.5773 7.00682 71.2391 6.00258C71.9238 4.97601 72.8706 4.26893 74.0797 3.88092Z" fill="#333532"/>
<path d="M108.867 10.8996C110.214 10.8997 111.378 11.1973 112.36 11.7908C113.364 12.3614 114.14 13.1948 114.687 14.2903C115.235 15.3858 115.51 16.7091 115.51 18.2611V28.2591H109.894V18.9466C109.894 18.0108 109.666 17.3026 109.21 16.8232C108.776 16.3211 108.16 16.071 107.361 16.0709C106.539 16.0709 105.9 16.3333 105.443 16.8583C105.01 17.3605 104.793 18.1023 104.793 19.0837V28.2591H99.1769V18.9466C99.1769 18.0106 98.9708 17.3026 98.5599 16.8232C98.1491 16.3213 97.5446 16.0709 96.7459 16.0709C95.9242 16.0709 95.3077 16.3211 94.8968 16.8232C94.486 17.3253 94.2799 18.0443 94.2798 18.98V28.2591H88.6655V11.1387H93.7331L94.1427 12.9544C94.6678 12.3609 95.2965 11.8695 96.027 11.4815C96.7574 11.0935 97.5679 10.8996 98.458 10.8996C99.4623 10.8997 100.41 11.1286 101.3 11.5851C102.19 12.0416 102.92 12.692 103.49 13.5362C104.13 12.783 104.906 12.1558 105.819 11.6537C106.733 11.1515 107.749 10.8996 108.867 10.8996Z" fill="#333532"/>
<path d="M52.0121 3.60672C53.0392 3.60672 53.8725 3.91505 54.5116 4.53129C55.1736 5.1248 55.5047 5.86635 55.5047 6.75661C55.5047 7.62402 55.1736 8.36561 54.5116 8.98194C53.8725 9.57531 53.0392 9.87307 52.0121 9.87307C50.9623 9.87295 50.1182 9.57533 49.4791 8.98194C48.84 8.36561 48.5195 7.62402 48.5195 6.75661C48.5195 5.86637 48.84 5.12479 49.4791 4.53129C50.1182 3.91507 50.9623 3.60684 52.0121 3.60672Z" fill="#333532"/>
<path d="M82.436 3.60672C83.4857 3.60687 84.3299 3.89221 84.9689 4.46274C85.608 5.03341 85.9269 5.76442 85.9269 6.65463C85.9267 7.52164 85.6078 8.25154 84.9689 8.84484C84.3299 9.41537 83.4857 9.70071 82.436 9.70086C81.4087 9.70086 80.5633 9.41552 79.9014 8.84484C79.2625 8.25155 78.9435 7.52162 78.9433 6.65463C78.9433 5.76444 79.2623 5.0334 79.9014 4.46274C80.5633 3.89206 81.4087 3.60672 82.436 3.60672Z" fill="#333532"/>
</svg>
