<svg width="24" height="24" viewBox="0 0 24 24" fill="none" xmlns="http://www.w3.org/2000/svg">
<path d="M18.2778 9.33841C18.8474 9.33841 19.3094 9.79971 19.3095 10.3692V12C19.3095 13.8205 18.5129 15.5441 17.1331 16.7986C16.0066 17.8226 14.5643 18.4689 13.0317 18.6702V19.9366H15.5873C16.1569 19.9366 16.619 20.3987 16.619 20.9683C16.619 21.5379 16.1569 22 15.5873 22H8.41268C7.84308 22 7.38098 21.5379 7.38098 20.9683C7.38098 20.3987 7.84308 19.9366 8.41268 19.9366H10.9683V18.6702C9.43574 18.4689 7.99337 17.8226 6.86688 16.7986C5.48711 15.5441 4.69049 13.8205 4.69049 12V10.3692C4.69058 9.79971 5.15265 9.33841 5.7222 9.33841C6.29174 9.33841 6.75381 9.79971 6.7539 10.3692V12C6.7539 13.2066 7.2803 14.3859 8.25504 15.272C9.23305 16.1611 10.5785 16.676 12 16.676C13.4215 16.676 14.767 16.1611 15.745 15.272C16.7197 14.3859 17.2461 13.2066 17.2461 12V10.3692C17.2462 9.79971 17.7083 9.33841 18.2778 9.33841Z" fill="black"/>
<path fill-rule="evenodd" clip-rule="evenodd" d="M12 2C12.957 2 13.892 2.34541 14.5959 2.98529C15.303 3.62814 15.7222 4.52218 15.7222 5.47784V12C15.7222 12.9557 15.303 13.8497 14.5959 14.4926C13.892 15.1324 12.957 15.477 12 15.477C11.043 15.477 10.108 15.1324 9.4041 14.4926C8.69696 13.8497 8.27781 12.9557 8.27781 12V5.47784C8.27781 4.52218 8.69696 3.62814 9.4041 2.98529C10.108 2.34541 11.043 2 12 2ZM12 4.06341C11.53 4.06341 11.0966 4.23354 10.7914 4.51095C10.4894 4.78548 10.3412 5.13612 10.3412 5.47784V12C10.3412 12.3417 10.4895 12.6915 10.7914 12.966C11.0966 13.2435 11.5299 13.4144 12 13.4144C12.4701 13.4144 12.9034 13.2435 13.2086 12.966C13.5105 12.6915 13.6588 12.3417 13.6588 12V5.47784C13.6588 5.13612 13.5106 4.78548 13.2086 4.51095C12.9034 4.23354 12.47 4.06341 12 4.06341Z" fill="black"/>
</svg>
