<svg width="24" height="24" viewBox="0 0 24 24" fill="none" xmlns="http://www.w3.org/2000/svg">
<path fill-rule="evenodd" clip-rule="evenodd" d="M2 5.63636C2 5.15868 2.09412 4.68567 2.27698 4.24437C2.45983 3.80307 2.72785 3.40212 3.06571 3.06442C3.40357 2.72673 3.80465 2.45892 4.24605 2.27628C4.68744 2.09364 5.16049 1.99976 5.63818 2H18.3618C18.8395 1.99976 19.3126 2.09364 19.754 2.27628C20.1953 2.45892 20.5964 2.72673 20.9343 3.06442C21.2722 3.40212 21.5402 3.80307 21.723 4.24437C21.9059 4.68567 22 5.15868 22 5.63636V18.3636C22 19.3281 21.6169 20.253 20.9349 20.9349C20.253 21.6169 19.3281 22 18.3636 22H5.63636C4.67194 22 3.74702 21.6169 3.06507 20.9349C2.38312 20.253 2 19.3281 2 18.3636V5.63636ZM19.2727 12C19.2727 13.9288 18.5065 15.7787 17.1426 17.1426C15.7787 18.5065 13.9288 19.2727 12 19.2727C10.0712 19.2727 8.22131 18.5065 6.85741 17.1426C5.4935 15.7787 4.72727 13.9288 4.72727 12C4.72727 10.0712 5.4935 8.22131 6.85741 6.85741C8.22131 5.49351 10.0712 4.72727 12 4.72727C13.9288 4.72727 15.7787 5.49351 17.1426 6.85741C18.5065 8.22131 19.2727 10.0712 19.2727 12ZM12 13.8182C12.4822 13.8182 12.9447 13.6266 13.2856 13.2856C13.6266 12.9447 13.8182 12.4822 13.8182 12C13.8182 11.5178 13.6266 11.0553 13.2856 10.7144C12.9447 10.3734 12.4822 10.1818 12 10.1818C11.5178 10.1818 11.0553 10.3734 10.7144 10.7144C10.3734 11.0553 10.1818 11.5178 10.1818 12C10.1818 12.4822 10.3734 12.9447 10.7144 13.2856C11.0553 13.6266 11.5178 13.8182 12 13.8182Z" fill="black"/>
</svg>
