<svg width="24" height="24" viewBox="0 0 24 24" fill="none" xmlns="http://www.w3.org/2000/svg">
<path d="M12 2C10.0458 2 8.17161 2.77631 6.78976 4.15816C5.40792 5.54001 4.6316 7.41419 4.6316 9.36842V13.0821C4.63175 13.2454 4.59391 13.4065 4.52108 13.5526L2.71371 17.1663C2.62542 17.3429 2.58373 17.539 2.5926 17.7362C2.60147 17.9334 2.6606 18.1251 2.76439 18.293C2.86817 18.4609 3.01315 18.5995 3.18557 18.6956C3.35798 18.7917 3.55211 18.8421 3.7495 18.8421H20.2506C20.4479 18.8421 20.6421 18.7917 20.8145 18.6956C20.9869 18.5995 21.1319 18.4609 21.2357 18.293C21.3394 18.1251 21.3986 17.9334 21.4074 17.7362C21.4163 17.539 21.3746 17.3429 21.2863 17.1663L19.48 13.5526C19.4068 13.4066 19.3686 13.2455 19.3684 13.0821V9.36842C19.3684 7.41419 18.5921 5.54001 17.2103 4.15816C15.8284 2.77631 13.9543 2 12 2ZM12 22C11.3467 22.0003 10.7094 21.798 10.1758 21.421C9.6423 21.0439 9.23885 20.5107 9.02108 19.8947H14.979C14.7612 20.5107 14.3577 21.0439 13.8242 21.421C13.2907 21.798 12.6533 22.0003 12 22Z" fill="black"/>
</svg>
