<svg width="24" height="24" viewBox="0 0 24 24" fill="none" xmlns="http://www.w3.org/2000/svg">
<path fill-rule="evenodd" clip-rule="evenodd" d="M9.40429 3.00057C9.89186 2.98972 10.3688 3.13443 10.7563 3.41079C11.1439 3.68714 11.4188 4.07861 11.5357 4.52052L11.8429 5.66715H19.8571C20.4255 5.66715 20.9705 5.87786 21.3724 6.25292C21.7742 6.62798 22 7.13667 22 7.66709V19.0001C22 19.5305 21.7742 20.0392 21.3724 20.4142C20.9705 20.7893 20.4255 21 19.8571 21H4.14286C3.57454 21 3.02949 20.7893 2.62763 20.4142C2.22576 20.0392 2 19.5305 2 19.0001V5.0005C2 4.47009 2.22576 3.9614 2.62763 3.58634C3.02949 3.21128 3.57454 3.00057 4.14286 3.00057H9.40429ZM15.5429 8.64039C15.3353 8.60379 15.1216 8.61062 14.9171 8.66039L14.91 8.66306L9.95 9.94701C9.65953 10.0218 9.4031 10.1829 9.21956 10.4059C9.03601 10.629 8.93536 10.9018 8.93286 11.183V14.3335C8.49721 14.3245 8.06857 14.4369 7.70162 14.6562C7.33468 14.8755 7.04607 15.1919 6.87262 15.565C6.69918 15.9381 6.64876 16.351 6.72781 16.7509C6.80686 17.1508 7.01178 17.5197 7.31643 17.8105C7.62109 18.1013 8.01166 18.3008 8.4383 18.3835C8.86494 18.4662 9.30832 18.4284 9.71185 18.2749C10.1154 18.1214 10.4608 17.8592 10.7039 17.5217C10.9471 17.1843 11.077 16.7868 11.0771 16.3801V11.9883L14.5157 11.0963V12.8336H14.4671C14.0299 12.833 13.6025 12.9544 13.2397 13.1821C12.8768 13.4098 12.5952 13.7334 12.4308 14.1116C12.2664 14.4897 12.2268 14.905 12.317 15.3043C12.4073 15.7036 12.6233 16.0686 12.9373 16.3525C13.2514 16.6364 13.6491 16.8263 14.0796 16.8978C14.5101 16.9693 14.9536 16.9191 15.3533 16.7538C15.753 16.5884 16.0907 16.3153 16.323 15.9696C16.5553 15.624 16.6717 15.2214 16.6571 14.8135L16.6557 9.90302V9.89768C16.6541 9.60026 16.5422 9.31253 16.3391 9.08335C16.136 8.85417 15.8556 8.69765 15.5429 8.64039Z" fill="black"/>
</svg>
