<svg width="24" height="24" viewBox="0 0 24 24" fill="none" xmlns="http://www.w3.org/2000/svg">
<path d="M22.0001 13.9999H21.0001C21.0001 10.1299 17.8701 6.99991 14.0001 6.99991H13.0001V5.72991C13.3042 5.55433 13.5568 5.30178 13.7323 4.99764C13.9078 4.6935 14.0002 4.34851 14.0001 3.99735C14 3.64619 13.9075 3.30124 13.7318 2.9972C13.5561 2.69315 13.3034 2.44072 12.9992 2.2653C12.695 2.08988 12.35 1.99764 11.9988 1.99786C11.6477 1.99809 11.3028 2.09077 10.9988 2.26658C10.6948 2.4424 10.4425 2.69515 10.2672 2.99942C10.0919 3.30369 9.99976 3.64875 10.0001 3.99991C10.0001 4.73991 10.4001 5.38991 11.0001 5.72991V6.99991H10.0001C6.13012 6.99991 3.00012 10.1299 3.00012 13.9999H2.00012C1.45012 13.9999 1.00012 14.4499 1.00012 14.9999V17.9999C1.00012 18.5499 1.45012 18.9999 2.00012 18.9999H3.00012V19.9999C3.00012 20.5303 3.21084 21.0391 3.58591 21.4141C3.96098 21.7892 4.46969 21.9999 5.00012 21.9999H19.0001C20.1101 21.9999 21.0001 21.1099 21.0001 19.9999V18.9999H22.0001C22.5501 18.9999 23.0001 18.5499 23.0001 17.9999V14.9999C23.0001 14.4499 22.5501 13.9999 22.0001 13.9999ZM9.79012 16.4999C9.40012 15.6199 8.53012 14.9999 7.50012 14.9999C6.47012 14.9999 5.60012 15.6199 5.21012 16.4999C5.08012 16.1899 5.00012 15.8599 5.00012 15.4999C5.00012 14.8369 5.26351 14.201 5.73236 13.7321C6.2012 13.2633 6.83708 12.9999 7.50012 12.9999C8.16316 12.9999 8.79905 13.2633 9.26789 13.7321C9.73673 14.201 10.0001 14.8369 10.0001 15.4999C10.0001 15.8599 9.92012 16.1899 9.79012 16.4999ZM18.7901 16.4999C18.4001 15.6199 17.5001 14.9999 16.5001 14.9999C15.5001 14.9999 14.6001 15.6199 14.2101 16.4999C14.0801 16.1899 14.0001 15.8599 14.0001 15.4999C14.0001 14.8369 14.2635 14.201 14.7324 13.7321C15.2012 13.2633 15.8371 12.9999 16.5001 12.9999C17.1632 12.9999 17.799 13.2633 18.2679 13.7321C18.7367 14.201 19.0001 14.8369 19.0001 15.4999C19.0001 15.8599 18.9201 16.1899 18.7901 16.4999Z" fill="black"/>
</svg>
