<svg width="24" height="24" viewBox="0 0 24 24" fill="none" xmlns="http://www.w3.org/2000/svg">
<path d="M19.619 12.4766L19.7167 12.4814C20.1968 12.5303 20.5712 12.9357 20.5712 13.4287C20.5711 13.9546 20.145 14.3809 19.619 14.3809H18.6669V19.6191C18.6668 20.2505 18.416 20.8563 17.9696 21.3027C17.5232 21.7492 16.9174 21.9999 16.286 22C15.9318 22.0004 15.5816 21.9214 15.2616 21.7695C14.9418 21.6177 14.6599 21.3966 14.4364 21.1221C14.2128 20.8473 14.0533 20.5258 13.9696 20.1816C13.8859 19.8377 13.8797 19.4794 13.952 19.1328C14.0244 18.7862 14.1732 18.4596 14.3876 18.1777C14.6019 17.8959 14.8766 17.6652 15.1913 17.5029C15.5061 17.3406 15.8539 17.2505 16.2079 17.2393L16.4725 17.2461C16.736 17.2671 16.9949 17.3319 17.2382 17.4385V12.4766H19.619Z" fill="black"/>
<path d="M6.28601 2V8.66699L8.66687 7.23828L11.0477 8.66699V2H16.7616C17.2668 2 17.752 2.20041 18.1093 2.55762C18.4663 2.91471 18.6667 3.39933 18.6669 3.9043V10.5713H15.3329V15.4385C13.4284 15.8768 11.9999 17.5812 11.9999 19.6191C11.9999 20.1239 12.086 20.6003 12.2479 21.0479H5.33289C4.27596 21.0476 3.42859 20.1996 3.42859 19.1426V3.9043C3.42871 3.39929 3.6291 2.91472 3.98621 2.55762C4.34331 2.20051 4.82788 2.00012 5.33289 2H6.28601Z" fill="black"/>
</svg>
